<?xml version="1.0" encoding="iso-8859-1"?>
<!-- Generator: Adobe Illustrator 19.0.0, SVG Export Plug-In . SVG Version: 6.00 Build 0)  -->
<svg version="1.1" id="Layer_1" xmlns="http://www.w3.org/2000/svg" xmlns:xlink="http://www.w3.org/1999/xlink" x="0px" y="0px"
	 viewBox="0 0 363.062 363.062" style="enable-background:new 0 0 363.062 363.062;" xml:space="preserve">
<g>
	<path style="fill:#009BDE;" d="M314.113,112.957v234.038c0,8.836-7.23,16.066-16.065,16.066H100.473
		c-8.836,0-16.065-7.23-16.065-16.066V112.957H314.113z"/>
	<path style="fill:#C3C6C8;" d="M84.406,333.308v13.688c0,8.836,7.229,16.066,16.065,16.066h197.576
		c8.836,0,16.065-7.23,16.065-16.066v-13.688H84.406z"/>
	<path style="fill:#333E48;" d="M314.113,76.891c0-18.608-15.082-33.692-33.689-33.692H118.1c-18.607,0-33.692,15.084-33.692,33.692
		v36.066h229.707V76.891H314.113z"/>
	<path style="fill:#77B8E8;" d="M272.228,112.957v234.038c0,8.836-7.229,16.066-16.065,16.066H65.014
		c-8.836,0-16.065-7.23-16.065-16.066V112.957H272.228z"/>
	<path style="fill:#3E4A57;" d="M272.228,76.891c0-18.608-15.084-33.692-33.691-33.692h-155.9
		c-18.607,0-33.689,15.084-33.689,33.692v36.066h223.28V76.891z"/>
	<g>
		<circle style="fill:#FFFFFF;" cx="230.93" cy="67.12" r="7.854"/>
		<circle style="fill:#D16A70;" cx="230.93" cy="91.823" r="7.854"/>
	</g>
	<rect x="89.908" style="fill:#E8E8E8;" width="170.653" height="43.199"/>
	<rect x="106.921" y="21.421" style="fill:#A4A9AD;" width="131.862" height="6.795"/>
	<rect x="106.921" y="36.405" style="fill:#A4A9AD;" width="131.862" height="6.794"/>
	<g>
		<rect x="89.908" y="112.957" style="fill:#E8E8E8;" width="17.013" height="137.667"/>
		<rect x="120.637" y="112.957" style="fill:#E8E8E8;" width="17.016" height="137.667"/>
		<rect x="151.364" y="112.957" style="fill:#E8E8E8;" width="17.016" height="137.667"/>
		<rect x="182.092" y="112.957" style="fill:#E8E8E8;" width="17.016" height="137.667"/>
		<rect x="212.821" y="112.957" style="fill:#E8E8E8;" width="17.014" height="137.667"/>
		<rect x="243.549" y="112.957" style="fill:#E8E8E8;" width="17.014" height="137.667"/>
	</g>
	<path style="fill:#E8E8E8;" d="M48.947,333.308v13.688c0,8.836,7.229,16.066,16.065,16.066h191.149
		c8.836,0,16.065-7.23,16.065-16.066v-13.688H48.947z"/>
	<path style="opacity:0.4;fill:#77B8E8;enable-background:new    ;" d="M272.228,112.957v234.038
		c0,8.836-7.229,16.066-16.065,16.066H65.014c-8.836,0-16.065-7.23-16.065-16.066V112.957H272.228z"/>
</g>
<g>
</g>
<g>
</g>
<g>
</g>
<g>
</g>
<g>
</g>
<g>
</g>
<g>
</g>
<g>
</g>
<g>
</g>
<g>
</g>
<g>
</g>
<g>
</g>
<g>
</g>
<g>
</g>
<g>
</g>
</svg>
