<svg width="233" height="60" viewBox="0 0 233 60" fill="none" xmlns="http://www.w3.org/2000/svg">
<path d="M-0.0078125 58.2267V41.7879H10.4594V33.6809H21.677L-0.0078125 22.1621V0.445312H10.4594V24.9065H37.2341V0.445312H47.7296V58.2267H37.2341V33.6809H10.4594V58.2267H-0.0078125Z" fill="white"/>
<path d="M72.7984 59.0731C68.5664 59.0731 64.8986 58.1421 61.7951 56.28C58.6917 54.4179 56.2841 51.8128 54.5725 48.4648C52.8797 45.1168 52.0332 41.2045 52.0332 36.728C52.0332 32.2514 52.8797 28.3297 54.5725 24.9629C56.2841 21.5961 58.6917 18.9816 61.7951 17.1195C64.8986 15.2574 68.5664 14.3264 72.7984 14.3264C77.0305 14.3264 80.6982 15.2574 83.8017 17.1195C86.9052 18.9816 89.3034 21.5961 90.9962 24.9629C92.7078 28.3297 93.5636 32.2514 93.5636 36.728C93.5636 41.2045 92.7078 45.1168 90.9962 48.4648C89.3034 51.8128 86.9052 54.4179 83.8017 56.28C80.6982 58.1421 77.0305 59.0731 72.7984 59.0731ZM72.8549 50.8912C75.1496 50.8912 77.0681 50.2611 78.6104 49.0009C80.1528 47.7219 81.3001 46.0102 82.0525 43.866C82.8237 41.7218 83.2092 39.333 83.2092 36.6998C83.2092 34.0477 82.8237 31.6495 82.0525 29.5053C81.3001 27.3423 80.1528 25.6212 78.6104 24.3422C77.0681 23.0632 75.1496 22.4237 72.8549 22.4237C70.5037 22.4237 68.5476 23.0632 66.9864 24.3422C65.4441 25.6212 64.2873 27.3423 63.5162 29.5053C62.7638 31.6495 62.3876 34.0477 62.3876 36.6998C62.3876 39.333 62.7638 41.7218 63.5162 43.866C64.2873 46.0102 65.4441 47.7219 66.9864 49.0009C68.5476 50.2611 70.5037 50.8912 72.8549 50.8912Z" fill="white"/>
<path d="M103.757 58.8474C102.045 58.8474 100.578 58.2455 99.3556 57.0417C98.133 55.838 97.5311 54.3708 97.5499 52.6404C97.5311 50.9476 98.133 49.4993 99.3556 48.2955C100.578 47.0918 102.045 46.4899 103.757 46.4899C105.412 46.4899 106.851 47.0918 108.074 48.2955C109.315 49.4993 109.945 50.9476 109.964 52.6404C109.945 53.7878 109.644 54.8317 109.061 55.7721C108.497 56.7126 107.744 57.4649 106.804 58.0292C105.882 58.5747 104.867 58.8474 103.757 58.8474Z" fill="white"/>
<path d="M125.052 44.6278L125.024 32.2984H126.66L142.234 14.8907H154.169L135.012 36.2201H132.896L125.052 44.6278ZM115.742 58.2267V0.445312H125.955V58.2267H115.742ZM142.94 58.2267L128.833 38.5054L135.717 31.311L155.156 58.2267H142.94Z" fill="white"/>
<path d="M165.519 44.6278L165.49 32.2984H167.127L182.701 14.8907H194.635L175.478 36.2201H173.362L165.519 44.6278ZM156.208 58.2267V0.445312H166.422V58.2267H156.208ZM183.406 58.2267L169.299 38.5054L176.183 31.311L195.623 58.2267H183.406Z" fill="white"/>
<path d="M209.239 59.0355C206.493 59.0355 204.02 58.5465 201.819 57.5684C199.637 56.5715 197.907 55.1044 196.628 53.1671C195.368 51.2297 194.738 48.841 194.738 46.0008C194.738 43.5556 195.189 41.5337 196.092 39.9349C196.995 38.3361 198.227 37.0571 199.788 36.0978C201.349 35.1386 203.108 34.4144 205.064 33.9254C207.039 33.4176 209.079 33.0508 211.186 32.8251C213.725 32.5617 215.785 32.3266 217.365 32.1197C218.945 31.894 220.092 31.5555 220.807 31.104C221.541 30.6338 221.907 29.9097 221.907 28.9316V28.7623C221.907 26.6369 221.277 24.9911 220.017 23.8249C218.757 22.6588 216.942 22.0757 214.572 22.0757C212.07 22.0757 210.086 22.6212 208.619 23.7121C207.17 24.803 206.192 26.0914 205.684 27.5774L196.148 26.2231C196.901 23.5898 198.142 21.3892 199.872 19.6211C201.603 17.8343 203.719 16.4988 206.221 15.6148C208.722 14.712 211.487 14.2605 214.515 14.2605C216.603 14.2605 218.682 14.5051 220.751 14.9941C222.82 15.4831 224.71 16.2919 226.421 17.4205C228.133 18.5302 229.506 20.0443 230.541 21.9629C231.594 23.8814 232.121 26.2795 232.121 29.1573L232.091 58.087L222.288 58.1529V52.2268H221.909C221.289 53.4306 220.468 54.5401 219.34 55.5934C218.23 56.6279 216.829 57.4649 215.136 58.1044C213.462 58.7251 211.496 59.0355 209.239 59.0355ZM211.891 51.5307C213.942 51.5307 215.719 51.1263 217.224 50.3175C218.729 49.4899 219.885 48.399 220.694 47.0447C221.522 45.6905 221.936 44.214 221.936 42.6152V37.5085C221.616 37.7719 221.07 38.0164 220.299 38.2421C219.547 38.4678 218.7 38.6653 217.76 38.8346C216.819 39.0038 215.888 39.1543 214.967 39.286C214.045 39.4176 213.246 39.5305 212.569 39.6245C211.045 39.8314 209.681 40.17 208.478 40.6402C207.274 41.1105 206.324 41.7688 205.628 42.6152C204.932 43.4428 204.584 44.5149 204.584 45.8315C204.584 47.7124 205.271 49.1325 206.644 50.0918C208.017 51.051 209.766 51.5307 211.891 51.5307Z" fill="white"/>
</svg>
