<svg width="233" height="63" viewBox="0 0 233 63" fill="none" xmlns="http://www.w3.org/2000/svg">
<path d="M-0.0078125 61.2267V44.7879H10.4594V36.6809H21.677L-0.0078125 25.1621V3.44531H10.4594V27.9065H37.2341V3.44531H47.7296V61.2267H37.2341V36.6809H10.4594V61.2267H-0.0078125Z" fill="white"/>
<path d="M72.7984 62.0731C68.5664 62.0731 64.8986 61.1421 61.7951 59.28C58.6917 57.4179 56.2841 54.8128 54.5725 51.4648C52.8797 48.1168 52.0332 44.2045 52.0332 39.728C52.0332 35.2514 52.8797 31.3297 54.5725 27.9629C56.2841 24.5961 58.6917 21.9816 61.7951 20.1195C64.8986 18.2574 68.5664 17.3264 72.7984 17.3264C77.0305 17.3264 80.6982 18.2574 83.8017 20.1195C86.9052 21.9816 89.3034 24.5961 90.9962 27.9629C92.7078 31.3297 93.5636 35.2514 93.5636 39.728C93.5636 44.2045 92.7078 48.1168 90.9962 51.4648C89.3034 54.8128 86.9052 57.4179 83.8017 59.28C80.6982 61.1421 77.0305 62.0731 72.7984 62.0731ZM72.8549 53.8912C75.1496 53.8912 77.0681 53.2611 78.6104 52.0009C80.1528 50.7219 81.3001 49.0102 82.0525 46.866C82.8237 44.7218 83.2092 42.333 83.2092 39.6998C83.2092 37.0477 82.8237 34.6495 82.0525 32.5053C81.3001 30.3423 80.1528 28.6212 78.6104 27.3422C77.0681 26.0632 75.1496 25.4237 72.8549 25.4237C70.5037 25.4237 68.5476 26.0632 66.9864 27.3422C65.4441 28.6212 64.2873 30.3423 63.5162 32.5053C62.7638 34.6495 62.3876 37.0477 62.3876 39.6998C62.3876 42.333 62.7638 44.7218 63.5162 46.866C64.2873 49.0102 65.4441 50.7219 66.9864 52.0009C68.5476 53.2611 70.5037 53.8912 72.8549 53.8912Z" fill="white"/>
<path d="M103.757 61.8474C102.045 61.8474 100.578 61.2455 99.3556 60.0417C98.133 58.838 97.5311 57.3709 97.5499 55.6404C97.5311 53.9476 98.133 52.4993 99.3556 51.2955C100.578 50.0918 102.045 49.4899 103.757 49.4899C105.412 49.4899 106.851 50.0918 108.074 51.2955C109.315 52.4993 109.945 53.9476 109.964 55.6404C109.945 56.7878 109.644 57.8317 109.061 58.7721C108.497 59.7126 107.744 60.4649 106.804 61.0292C105.882 61.5747 104.867 61.8474 103.757 61.8474Z" fill="white"/>
<path d="M125.052 47.6278L125.024 35.2984H126.66L142.234 17.8907H154.169L135.012 39.2201H132.896L125.052 47.6278ZM115.742 61.2267V3.44531H125.955V61.2267H115.742ZM142.94 61.2267L128.833 41.5054L135.717 34.311L155.156 61.2267H142.94Z" fill="white"/>
<path d="M165.519 47.6278L165.49 35.2984H167.127L182.701 17.8907H194.635L175.478 39.2201H173.362L165.519 47.6278ZM156.208 61.2267V3.44531H166.422V61.2267H156.208ZM183.406 61.2267L169.299 41.5054L176.183 34.311L195.623 61.2267H183.406Z" fill="white"/>
<path d="M209.239 62.0355C206.493 62.0355 204.02 61.5465 201.819 60.5684C199.637 59.5715 197.907 58.1044 196.628 56.1671C195.368 54.2297 194.738 51.841 194.738 49.0008C194.738 46.5556 195.189 44.5337 196.092 42.9349C196.995 41.3361 198.227 40.0571 199.788 39.0978C201.349 38.1386 203.108 37.4144 205.064 36.9254C207.039 36.4176 209.079 36.0508 211.186 35.8251C213.725 35.5617 215.785 35.3266 217.365 35.1197C218.945 34.894 220.092 34.5555 220.807 34.104C221.541 33.6338 221.907 32.9097 221.907 31.9316V31.7623C221.907 29.6369 221.277 27.9911 220.017 26.8249C218.757 25.6588 216.942 25.0757 214.572 25.0757C212.07 25.0757 210.086 25.6212 208.619 26.7121C207.17 27.803 206.192 29.0914 205.684 30.5774L196.148 29.2231C196.901 26.5898 198.142 24.3892 199.873 22.6211C201.603 20.8343 203.719 19.4988 206.221 18.6148C208.722 17.712 211.487 17.2605 214.515 17.2605C216.603 17.2605 218.682 17.5051 220.751 17.9941C222.82 18.4831 224.71 19.2919 226.421 20.4205C228.133 21.5302 229.506 23.0443 230.541 24.9629C231.594 26.8814 232.121 29.2795 232.121 32.1573L232.091 61.087L222.288 61.1529V55.2268H221.909C221.289 56.4306 220.468 57.5401 219.34 58.5934C218.23 59.6279 216.829 60.4649 215.136 61.1044C213.462 61.7251 211.496 62.0355 209.239 62.0355ZM211.891 54.5307C213.942 54.5307 215.719 54.1263 217.224 53.3175C218.729 52.4899 219.885 51.399 220.694 50.0447C221.522 48.6905 221.936 47.214 221.936 45.6152V40.5085C221.616 40.7719 221.07 41.0164 220.299 41.2421C219.547 41.4678 218.7 41.6653 217.76 41.8346C216.819 42.0038 215.888 42.1543 214.967 42.286C214.045 42.4176 213.246 42.5305 212.569 42.6245C211.045 42.8314 209.681 43.17 208.478 43.6402C207.274 44.1105 206.324 44.7688 205.628 45.6152C204.932 46.4428 204.584 47.5149 204.584 48.8315C204.584 50.7124 205.271 52.1325 206.644 53.0918C208.017 54.051 209.766 54.5307 211.891 54.5307Z" fill="white"/>
<path d="M205.172 11.6173H197.921C197.921 10.7946 197.728 7.78499 198.746 5.29484C201.039 -0.312887 206.639 0.0476489 208.961 0.0476489C211.283 0.0476489 218.331 3.46969 219.96 3.55117C221.264 3.61635 221.845 2.52461 221.845 1.83206V0.283998H229.097C229.097 4.89246 228.657 6.87344 226.009 9.14301C222.875 11.8294 219.2 11.6173 217.323 11.6173C214.472 11.6173 211.038 8.64336 208.961 7.99155C207.299 7.47009 206.123 8.56189 205.742 9.17297C205.742 9.17297 205.213 9.93886 205.172 10.5092C205.131 11.0795 205.172 11.6173 205.172 11.6173Z" fill="white"/>
</svg>
