<svg width="33" height="12" viewBox="0 0 33 12" fill="none" xmlns="http://www.w3.org/2000/svg">
<path d="M8.17204 11.6153H0.920566C0.920876 10.7927 0.728322 7.78304 1.74623 5.29288C4.03853 -0.31484 9.63864 0.0456958 11.9607 0.0456958C14.2828 0.0456958 21.3306 3.46774 22.9602 3.54922C24.2638 3.6144 24.8452 2.52266 24.8452 1.8301V0.282045H32.0966C32.0966 4.8905 31.6569 6.87149 29.0091 9.14106C25.875 11.8275 22.2004 11.6153 20.3232 11.6153C17.4722 11.6153 14.0384 8.64141 11.9607 7.98959C10.2986 7.46814 9.12261 8.55993 8.74238 9.17101C8.74238 9.17101 8.21278 9.93691 8.17204 10.5072C8.1313 11.0776 8.17204 11.6153 8.17204 11.6153Z" fill="white"/>
</svg>
