<svg width="97" height="109" viewBox="0 0 97 109" fill="none" xmlns="http://www.w3.org/2000/svg">
<mask id="path-1-inside-1_877_15020" fill="white">
<path fill-rule="evenodd" clip-rule="evenodd" d="M48.5821 0H52.0185V51.7091H91.1276V55.9636H52.0185L52.0185 102.764L52.0185 107.182V108.164L52.0181 108.163L2.10938 51.7091L48.5821 51.7091V0ZM48.5821 55.9636H44.1639L23.1366 55.9636H10.6185L48.5821 98.879V98.8364V94.5V81V55.9636Z"/>
</mask>
<path fill-rule="evenodd" clip-rule="evenodd" d="M48.5821 0H52.0185V51.7091H91.1276V55.9636H52.0185L52.0185 102.764L52.0185 107.182V108.164L52.0181 108.163L2.10938 51.7091L48.5821 51.7091V0ZM48.5821 55.9636H44.1639L23.1366 55.9636H10.6185L48.5821 98.879V98.8364V94.5V81V55.9636Z" fill="white"/>
<path d="M52.0185 0H53.0185V-1H52.0185V0ZM48.5821 0V-1H47.5821V0H48.5821ZM52.0185 51.7091H51.0185V52.7091H52.0185V51.7091ZM91.1276 51.7091H92.1276V50.7091H91.1276V51.7091ZM91.1276 55.9636V56.9636H92.1276V55.9636H91.1276ZM52.0185 55.9636V54.9636H51.0185V55.9636H52.0185ZM52.0185 102.764H53.0185H52.0185ZM52.0185 107.182H51.0185H52.0185ZM52.0185 108.164L51.2684 108.825L53.0185 110.81V108.164H52.0185ZM52.0181 108.163L52.7681 107.502L52.7673 107.501L52.0181 108.163ZM2.10938 51.7091L2.10938 50.7091H-0.109433L1.36017 52.3714L2.10938 51.7091ZM48.5821 51.7091V52.7091H49.5821V51.7091H48.5821ZM44.1639 55.9636V56.9636V55.9636ZM48.5821 55.9636H49.5821V54.9636H48.5821V55.9636ZM23.1366 55.9636V54.9636V55.9636ZM10.6185 55.9636V54.9636H8.39873L9.86947 56.6262L10.6185 55.9636ZM48.5821 98.879L47.8331 99.5416L49.5821 101.519V98.879H48.5821ZM52.0185 -1H48.5821V1H52.0185V-1ZM53.0185 51.7091V0H51.0185V51.7091H53.0185ZM91.1276 50.7091H52.0185V52.7091H91.1276V50.7091ZM92.1276 55.9636V51.7091H90.1276V55.9636H92.1276ZM52.0185 56.9636H91.1276V54.9636H52.0185V56.9636ZM53.0185 102.764L53.0185 55.9636H51.0185L51.0185 102.764H53.0185ZM53.0185 107.182L53.0185 102.764H51.0185L51.0185 107.182H53.0185ZM53.0185 108.164V107.182H51.0185V108.164H53.0185ZM51.2681 108.825L51.2684 108.825L52.7685 107.502L52.7681 107.502L51.2681 108.825ZM1.36017 52.3714L51.2689 108.826L52.7673 107.501L2.85858 51.0467L1.36017 52.3714ZM48.5821 50.7091L2.10938 50.7091L2.10937 52.7091L48.5821 52.7091V50.7091ZM47.5821 0V51.7091H49.5821V0H47.5821ZM44.1639 56.9636H48.5821V54.9636H44.1639V56.9636ZM23.1366 56.9636L44.1639 56.9636V54.9636L23.1366 54.9636V56.9636ZM10.6185 56.9636H23.1366V54.9636H10.6185V56.9636ZM49.3311 98.2165L11.3675 55.301L9.86947 56.6262L47.8331 99.5416L49.3311 98.2165ZM47.5821 98.8364V98.879H49.5821V98.8364H47.5821ZM47.5821 94.5V98.8364H49.5821V94.5H47.5821ZM47.5821 81V94.5H49.5821V81H47.5821ZM47.5821 55.9636V81H49.5821V55.9636H47.5821Z" fill="white" mask="url(#path-1-inside-1_877_15020)"/>
</svg>
