{
  "accessors": [
    {
      "bufferView": 2,
      "componentType": 5126,
      "count": 4143,
      "max": [
        1.3903427124023438,
        8.697052955627441,
        4.7208099365234375
      ],
      "min": [
        -1.3903427124023438,
        -1.7341300249099731,
        -1.3849695920944214
      ],
      "type": "VEC3"
    },
    {
      "bufferView": 2,
      "byteOffset": 49716,
      "componentType": 5126,
      "count": 4143,
      "max": [
        0.9998824596405029,
        0.9808306694030762,
        0.9980058073997498
      ],
      "min": [
        -0.9998823404312134,
        -0.9205243587493896,
        -0.9925401210784912
      ],
      "type": "VEC3"
    },
    {
      "bufferView": 3,
      "componentType": 5126,
      "count": 4143,
      "max": [
        0.9996839165687561,
        0.9999068379402161,
        0.9993804097175598,
        1.0
      ],
      "min": [
        -0.9996146559715271,
        -0.9997740387916565,
        -0.9987736940383911,
        -1.0
      ],
      "type": "VEC4"
    },
    {
      "bufferView": 1,
      "componentType": 5126,
      "count": 4143,
      "max": [
        0.9969858527183533,
        0.9868879318237305
      ],
      "min": [
        0.002932286588475108,
        0.0030122145544737577
      ],
      "type": "VEC2"
    },
    {
      "bufferView": 0,
      "componentType": 5125,
      "count": 12480,
      "type": "SCALAR"
    },
    {
      "bufferView": 2,
      "byteOffset": 99432,
      "componentType": 5126,
      "count": 236,
      "max": [
        0.5685791373252869,
        0.17529630661010742,
        0.17529535293579102
      ],
      "min": [
        -0.5685792565345764,
        -0.17529737949371338,
        -0.17529821395874023
      ],
      "type": "VEC3"
    },
    {
      "bufferView": 2,
      "byteOffset": 102264,
      "componentType": 5126,
      "count": 236,
      "max": [
        1.0,
        1.0,
        1.0
      ],
      "min": [
        -1.0,
        -1.0,
        -1.0
      ],
      "type": "VEC3"
    },
    {
      "bufferView": 3,
      "byteOffset": 66288,
      "componentType": 5126,
      "count": 236,
      "max": [
        1.0,
        1.0,
        1.0,
        1.0
      ],
      "min": [
        -1.0,
        -0.9997659921646118,
        -1.0,
        1.0
      ],
      "type": "VEC4"
    },
    {
      "bufferView": 1,
      "byteOffset": 33144,
      "componentType": 5126,
      "count": 236,
      "max": [
        0.9153438806533813,
        0.9041923880577087
      ],
      "min": [
        0.11567208915948868,
        0.27893394231796265
      ],
      "type": "VEC2"
    },
    {
      "bufferView": 0,
      "byteOffset": 49920,
      "componentType": 5125,
      "count": 660,
      "type": "SCALAR"
    },
    {
      "bufferView": 2,
      "byteOffset": 105096,
      "componentType": 5126,
      "count": 4015,
      "max": [
        1.4419419765472412,
        4.135697364807129,
        2.2263479232788086
      ],
      "min": [
        -1.4419419765472412,
        -10.580839157104492,
        -2.73129940032959
      ],
      "type": "VEC3"
    },
    {
      "bufferView": 2,
      "byteOffset": 153276,
      "componentType": 5126,
      "count": 4015,
      "max": [
        0.9999381899833679,
        0.9999945163726807,
        0.9999998211860657
      ],
      "min": [
        -0.9999381899833679,
        -0.999904453754425,
        -0.999999463558197
      ],
      "type": "VEC3"
    },
    {
      "bufferView": 3,
      "byteOffset": 70064,
      "componentType": 5126,
      "count": 4015,
      "max": [
        1.0,
        1.0,
        0.9999688863754272,
        1.0
      ],
      "min": [
        -1.0,
        -1.0,
        -0.9999998807907104,
        -1.0
      ],
      "type": "VEC4"
    },
    {
      "bufferView": 1,
      "byteOffset": 35032,
      "componentType": 5126,
      "count": 4015,
      "max": [
        0.9967483282089233,
        0.9932897090911865
      ],
      "min": [
        0.0029249570798128843,
        0.002925618551671505
      ],
      "type": "VEC2"
    },
    {
      "bufferView": 0,
      "byteOffset": 52560,
      "componentType": 5125,
      "count": 11295,
      "type": "SCALAR"
    },
    {
      "bufferView": 2,
      "byteOffset": 201456,
      "componentType": 5126,
      "count": 3546,
      "max": [
        1.534959316253662,
        1.674821376800537,
        1.5856151580810547
      ],
      "min": [
        -1.5349702835083008,
        -2.563413619995117,
        -1.5856084823608398
      ],
      "type": "VEC3"
    },
    {
      "bufferView": 2,
      "byteOffset": 244008,
      "componentType": 5126,
      "count": 3546,
      "max": [
        0.9999382495880127,
        0.9999653697013855,
        0.9999503493309021
      ],
      "min": [
        -0.9999011158943176,
        -0.9999973773956299,
        -0.9999502301216125
      ],
      "type": "VEC3"
    },
    {
      "bufferView": 3,
      "byteOffset": 134304,
      "componentType": 5126,
      "count": 3546,
      "max": [
        1.0,
        0.9999546408653259,
        0.9999976754188538,
        1.0
      ],
      "min": [
        -1.0,
        -0.9999546408653259,
        -0.9999984502792358,
        -1.0
      ],
      "type": "VEC4"
    },
    {
      "bufferView": 1,
      "byteOffset": 67152,
      "componentType": 5126,
      "count": 3546,
      "max": [
        0.9970643520355225,
        0.994098961353302
      ],
      "min": [
        0.0029266667552292347,
        0.05343151092529297
      ],
      "type": "VEC2"
    },
    {
      "bufferView": 0,
      "byteOffset": 97740,
      "componentType": 5125,
      "count": 9468,
      "type": "SCALAR"
    },
    {
      "bufferView": 2,
      "byteOffset": 286560,
      "componentType": 5126,
      "count": 594,
      "max": [
        0.08379729837179184,
        0.6213197112083435,
        0.7456504702568054
      ],
      "min": [
        -0.08379729837179184,
        -1.1371783018112183,
        -0.593574047088623
      ],
      "type": "VEC3"
    },
    {
      "bufferView": 2,
      "byteOffset": 293688,
      "componentType": 5126,
      "count": 594,
      "max": [
        1.0,
        0.9999998807907104,
        1.0
      ],
      "min": [
        -1.0,
        -0.9999992251396179,
        -1.0
      ],
      "type": "VEC3"
    },
    {
      "bufferView": 3,
      "byteOffset": 191040,
      "componentType": 5126,
      "count": 594,
      "max": [
        1.0,
        1.0,
        1.0,
        1.0
      ],
      "min": [
        -1.0,
        -1.0,
        -1.0,
        -1.0
      ],
      "type": "VEC4"
    },
    {
      "bufferView": 1,
      "byteOffset": 95520,
      "componentType": 5126,
      "count": 594,
      "max": [
        0.9970629215240479,
        0.9942010045051575
      ],
      "min": [
        0.14134782552719116,
        0.002934675896540284
      ],
      "type": "VEC2"
    },
    {
      "bufferView": 0,
      "byteOffset": 135612,
      "componentType": 5125,
      "count": 1470,
      "type": "SCALAR"
    },
    {
      "bufferView": 2,
      "byteOffset": 300816,
      "componentType": 5126,
      "count": 720,
      "max": [
        1.059321403503418,
        -0.03986358642578125,
        1.309809684753418
      ],
      "min": [
        0.7276806831359863,
        -1.8921148777008057,
        -0.2634248733520508
      ],
      "type": "VEC3"
    },
    {
      "bufferView": 2,
      "byteOffset": 309456,
      "componentType": 5126,
      "count": 720,
      "max": [
        1.0,
        0.9974697232246399,
        0.9999193549156189
      ],
      "min": [
        -1.0,
        -0.999186098575592,
        -0.999864935874939
      ],
      "type": "VEC3"
    },
    {
      "bufferView": 3,
      "byteOffset": 200544,
      "componentType": 5126,
      "count": 720,
      "max": [
        1.0,
        0.9996458292007446,
        0.999186098575592,
        1.0
      ],
      "min": [
        -1.0,
        -0.9998648762702942,
        -0.9974581003189087,
        1.0
      ],
      "type": "VEC4"
    },
    {
      "bufferView": 1,
      "byteOffset": 100272,
      "componentType": 5126,
      "count": 720,
      "max": [
        0.9964802265167236,
        0.9930959939956665
      ],
      "min": [
        0.002931497059762478,
        0.22092925012111664
      ],
      "type": "VEC2"
    },
    {
      "bufferView": 0,
      "byteOffset": 141492,
      "componentType": 5125,
      "count": 1704,
      "type": "SCALAR"
    },
    {
      "bufferView": 2,
      "byteOffset": 318096,
      "componentType": 5126,
      "count": 808,
      "max": [
        0.8515911102294922,
        2.179910659790039,
        -2.2895326614379883
      ],
      "min": [
        -0.8515911102294922,
        -1.6794452667236328,
        -6.81223201751709
      ],
      "type": "VEC3"
    },
    {
      "bufferView": 2,
      "byteOffset": 327792,
      "componentType": 5126,
      "count": 808,
      "max": [
        1.0,
        0.8399838805198669,
        0.9654564261436462
      ],
      "min": [
        -1.0,
        -0.8321332931518555,
        -0.8870453238487244
      ],
      "type": "VEC3"
    },
    {
      "bufferView": 3,
      "byteOffset": 212064,
      "componentType": 5126,
      "count": 808,
      "max": [
        0.9869818687438965,
        0.9999792575836182,
        0.9943868517875671,
        1.0
      ],
      "min": [
        -0.9885699152946472,
        -0.9994115829467773,
        -0.999990701675415,
        1.0
      ],
      "type": "VEC4"
    },
    {
      "bufferView": 1,
      "byteOffset": 106032,
      "componentType": 5126,
      "count": 808,
      "max": [
        0.9866139888763428,
        0.993270754814148
      ],
      "min": [
        0.003114383202046156,
        0.10292612761259079
      ],
      "type": "VEC2"
    },
    {
      "bufferView": 0,
      "byteOffset": 148308,
      "componentType": 5125,
      "count": 1518,
      "type": "SCALAR"
    },
    {
      "bufferView": 2,
      "byteOffset": 337488,
      "componentType": 5126,
      "count": 104,
      "max": [
        0.15361881256103516,
        0.20538902282714844,
        0.20538759231567383
      ],
      "min": [
        -0.07357501983642578,
        -0.20537757873535156,
        -0.20538616180419922
      ],
      "type": "VEC3"
    },
    {
      "bufferView": 2,
      "byteOffset": 338736,
      "componentType": 5126,
      "count": 104,
      "max": [
        0.0,
        0.9998862743377686,
        0.9998856782913208
      ],
      "min": [
        -0.9949909448623657,
        -0.9998863935470581,
        -0.9998857378959656
      ],
      "type": "VEC3"
    },
    {
      "bufferView": 3,
      "byteOffset": 224992,
      "componentType": 5126,
      "count": 104,
      "max": [
        0.6457152962684631,
        0.9997705817222595,
        0.9998845458030701,
        1.0
      ],
      "min": [
        -0.6431793570518494,
        -0.9998844265937805,
        -0.8476444482803345,
        1.0
      ],
      "type": "VEC4"
    },
    {
      "bufferView": 1,
      "byteOffset": 112496,
      "componentType": 5126,
      "count": 104,
      "max": [
        0.7451347708702087,
        0.9751340746879578
      ],
      "min": [
        0.23004713654518127,
        0.2389279305934906
      ],
      "type": "VEC2"
    },
    {
      "bufferView": 0,
      "byteOffset": 154380,
      "componentType": 5125,
      "count": 330,
      "type": "SCALAR"
    },
    {
      "bufferView": 2,
      "byteOffset": 339984,
      "componentType": 5126,
      "count": 100,
      "max": [
        0.9826590418815613,
        0.2602714002132416,
        1.380332112312317
      ],
      "min": [
        0.8330771327018738,
        -0.13239002227783203,
        -0.08312129974365234
      ],
      "type": "VEC3"
    },
    {
      "bufferView": 2,
      "byteOffset": 341184,
      "componentType": 5126,
      "count": 100,
      "max": [
        1.0,
        1.0,
        0.9998727440834045
      ],
      "min": [
        -1.0,
        -1.0,
        -1.0
      ],
      "type": "VEC3"
    },
    {
      "bufferView": 3,
      "byteOffset": 226656,
      "componentType": 5126,
      "count": 100,
      "max": [
        0.10864803194999695,
        1.0,
        1.0,
        1.0
      ],
      "min": [
        -1.0,
        -0.9999974370002747,
        -0.6822542548179626,
        1.0
      ],
      "type": "VEC4"
    },
    {
      "bufferView": 1,
      "byteOffset": 113328,
      "componentType": 5126,
      "count": 100,
      "max": [
        0.9409371614456177,
        0.984157145023346
      ],
      "min": [
        0.21240535378456116,
        0.43296605348587036
      ],
      "type": "VEC2"
    },
    {
      "bufferView": 0,
      "byteOffset": 155700,
      "componentType": 5125,
      "count": 228,
      "type": "SCALAR"
    }
  ],
  "asset": {
    "extras": {
      "author": "Zixo0 (https://sketchfab.com/Zixo0)",
      "license": "CC-BY-4.0 (http://creativecommons.org/licenses/by/4.0/)",
      "source": "https://sketchfab.com/3d-models/futuristic-revolver-fortunate-firearms-eeb678cfb0ae4821b2eb71fb6dad4fcc",
      "title": "Futuristic Revolver Fortunate Firearms"
    },
    "generator": "Sketchfab-16.29.0",
    "version": "2.0"
  },
  "bufferViews": [
    {
      "buffer": 0,
      "byteLength": 156612,
      "name": "floatBufferViews",
      "target": 34963
    },
    {
      "buffer": 0,
      "byteLength": 114128,
      "byteOffset": 156612,
      "byteStride": 8,
      "name": "floatBufferViews",
      "target": 34962
    },
    {
      "buffer": 0,
      "byteLength": 342384,
      "byteOffset": 270740,
      "byteStride": 12,
      "name": "floatBufferViews",
      "target": 34962
    },
    {
      "buffer": 0,
      "byteLength": 228256,
      "byteOffset": 613124,
      "byteStride": 16,
      "name": "floatBufferViews",
      "target": 34962
    }
  ],
  "buffers": [
    {
      "byteLength": 841380,
      "uri": "scene.bin"
    }
  ],
  "extensionsUsed": [
    "KHR_materials_emissive_strength"
  ],
  "images": [
    {
      "uri": "textures/Material_baseColor.png"
    },
    {
      "uri": "textures/Material_metallicRoughness.png"
    },
    {
      "uri": "textures/Material_emissive.png"
    },
    {
      "uri": "textures/Material_normal.png"
    }
  ],
  "materials": [
    {
      "doubleSided": true,
      "emissiveFactor": [
        1.0,
        1.0,
        1.0
      ],
      "emissiveTexture": {
        "index": 2
      },
      "extensions": {
        "KHR_materials_emissive_strength": {
          "emissiveStrength": 3.1955017409975
        }
      },
      "name": "Material",
      "normalTexture": {
        "index": 3
      },
      "pbrMetallicRoughness": {
        "baseColorTexture": {
          "index": 0
        },
        "metallicRoughnessTexture": {
          "index": 1
        }
      }
    }
  ],
  "meshes": [
    {
      "name": "handle_Material_0",
      "primitives": [
        {
          "attributes": {
            "NORMAL": 1,
            "POSITION": 0,
            "TANGENT": 2,
            "TEXCOORD_0": 3
          },
          "indices": 4,
          "material": 0,
          "mode": 4
        }
      ]
    },
    {
      "name": "Cylinder_Material_0",
      "primitives": [
        {
          "attributes": {
            "NORMAL": 6,
            "POSITION": 5,
            "TANGENT": 7,
            "TEXCOORD_0": 8
          },
          "indices": 9,
          "material": 0,
          "mode": 4
        }
      ]
    },
    {
      "name": "trunk_Material_0",
      "primitives": [
        {
          "attributes": {
            "NORMAL": 11,
            "POSITION": 10,
            "TANGENT": 12,
            "TEXCOORD_0": 13
          },
          "indices": 14,
          "material": 0,
          "mode": 4
        }
      ]
    },
    {
      "name": "drum_Material_0",
      "primitives": [
        {
          "attributes": {
            "NORMAL": 16,
            "POSITION": 15,
            "TANGENT": 17,
            "TEXCOORD_0": 18
          },
          "indices": 19,
          "material": 0,
          "mode": 4
        }
      ]
    },
    {
      "name": "trigger2_Material_0",
      "primitives": [
        {
          "attributes": {
            "NORMAL": 21,
            "POSITION": 20,
            "TANGENT": 22,
            "TEXCOORD_0": 23
          },
          "indices": 24,
          "material": 0,
          "mode": 4
        }
      ]
    },
    {
      "name": "trigger_Material_0",
      "primitives": [
        {
          "attributes": {
            "NORMAL": 26,
            "POSITION": 25,
            "TANGENT": 27,
            "TEXCOORD_0": 28
          },
          "indices": 29,
          "material": 0,
          "mode": 4
        }
      ]
    },
    {
      "name": "overlay_Material_0",
      "primitives": [
        {
          "attributes": {
            "NORMAL": 31,
            "POSITION": 30,
            "TANGENT": 32,
            "TEXCOORD_0": 33
          },
          "indices": 34,
          "material": 0,
          "mode": 4
        }
      ]
    },
    {
      "name": "button_Material_0",
      "primitives": [
        {
          "attributes": {
            "NORMAL": 36,
            "POSITION": 35,
            "TANGENT": 37,
            "TEXCOORD_0": 38
          },
          "indices": 39,
          "material": 0,
          "mode": 4
        }
      ]
    },
    {
      "name": "slider_Material_0",
      "primitives": [
        {
          "attributes": {
            "NORMAL": 41,
            "POSITION": 40,
            "TANGENT": 42,
            "TEXCOORD_0": 43
          },
          "indices": 44,
          "material": 0,
          "mode": 4
        }
      ]
    }
  ],
  "nodes": [
    {
      "children": [
        1
      ],
      "matrix": [
        1.2603625059127808,
        0.0,
        0.0,
        0.0,
        0.0,
        2.7985669468772584e-16,
        -1.2603625059127808,
        0.0,
        0.0,
        1.2603625059127808,
        2.7985669468772584e-16,
        0.0,
        0.0,
        0.0,
        0.0,
        1.0
      ],
      "name": "Sketchfab_model"
    },
    {
      "children": [
        2
      ],
      "matrix": [
        0.009999999776482582,
        0.0,
        0.0,
        0.0,
        0.0,
        0.0,
        0.009999999776482582,
        0.0,
        0.0,
        -0.009999999776482582,
        0.0,
        0.0,
        0.0,
        0.0,
        0.0,
        1.0
      ],
      "name": "e4184cfe92f14b11939ebbcd28b7544d.fbx"
    },
    {
      "children": [
        3,
        5,
        11,
        13,
        15,
        17,
        19
      ],
      "name": "RootNode"
    },
    {
      "children": [
        4
      ],
      "matrix": [
        1.5637109279632568,
        -8.613644892593521e-17,
        1.0853987739123117e-17,
        0.0,
        -1.0853989338348907e-17,
        -0.387924447158218,
        -1.5148287417100912,
        0.0,
        1.477009805128664e-16,
        2.597526495470433,
        -0.6651867646745738,
        0.0,
        -0.26055026054382324,
        -0.5285490155220032,
        8.229924201965332,
        1.0
      ],
      "name": "handle"
    },
    {
      "mesh": 0,
      "name": "handle_Material_0"
    },
    {
      "children": [
        6,
        7
      ],
      "matrix": [
        1.5637109279632568,
        -3.69444974577482e-16,
        0.0,
        0.0,
        -6.019022627657249e-23,
        -2.5476084675620495e-07,
        -1.5637109279632362,
        0.0,
        3.694449745774771e-16,
        1.5637109279632362,
        -2.5476084675620495e-07,
        0.0,
        -0.25575506687164307,
        4.996275424957275,
        -6.676974773406982,
        1.0
      ],
      "name": "Cylinder"
    },
    {
      "mesh": 1,
      "name": "Cylinder_Material_0"
    },
    {
      "children": [
        8,
        9
      ],
      "matrix": [
        0.8406076431274414,
        1.9632667926668554e-39,
        2.436024026016403e-23,
        0.0,
        -2.335532883525319e-39,
        1.0,
        0.0,
        0.0,
        -2.897932282596539e-23,
        -6.768216140233804e-62,
        1.0,
        0.0,
        -0.0030680596828460693,
        4.168769359588623,
        2.4357919692993164,
        1.0
      ],
      "name": "trunk"
    },
    {
      "mesh": 2,
      "name": "trunk_Material_0"
    },
    {
      "children": [
        10
      ],
      "matrix": [
        1.1896156072616577,
        -6.302788959458681e-39,
        7.692024281769232e-37,
        0.0,
        5.2981724056995125e-39,
        0.9999999403953552,
        -2.646977960169688e-23,
        0.0,
        -6.465974199006104e-37,
        2.646977960169688e-23,
        0.9999999403953552,
        0.0,
        -0.0028856247663497925,
        -7.9204535484313965,
        -0.6297740936279297,
        1.0
      ],
      "name": "drum"
    },
    {
      "mesh": 3,
      "name": "drum_Material_0"
    },
    {
      "children": [
        12
      ],
      "matrix": [
        2.509554386138916,
        -6.794159670964094e-19,
        4.0598664536407913e-22,
        0.0,
        -2.6317093108283026e-22,
        -0.0019064712353965027,
        -1.563709646571708,
        0.0,
        4.521005511338951e-19,
        1.669919680205869,
        -0.0020359622662141203,
        0.0,
        -0.26001083850860596,
        3.3141121864318848,
        2.3558244705200195,
        1.0
      ],
      "name": "trigger2"
    },
    {
      "mesh": 4,
      "name": "trigger2_Material_0"
    },
    {
      "children": [
        14
      ],
      "matrix": [
        1.5637109279632568,
        0.0,
        0.0,
        0.0,
        -0.0,
        -2.5476084675620495e-07,
        -1.5637109279632362,
        0.0,
        0.0,
        1.5637109279632362,
        -2.5476084675620495e-07,
        0.0,
        -1.656648874282837,
        8.908451080322266,
        3.6017470359802246,
        1.0
      ],
      "name": "trigger"
    },
    {
      "mesh": 5,
      "name": "trigger_Material_0"
    },
    {
      "children": [
        16
      ],
      "matrix": [
        1.5637109279632568,
        0.0,
        0.0,
        0.0,
        -0.0,
        -2.5476084675620495e-07,
        -1.5637109279632362,
        0.0,
        0.0,
        1.5637109279632362,
        -2.5476084675620495e-07,
        0.0,
        -0.26055026054382324,
        8.2264404296875,
        7.869002819061279,
        1.0
      ],
      "name": "overlay"
    },
    {
      "mesh": 6,
      "name": "overlay_Material_0"
    },
    {
      "children": [
        18
      ],
      "matrix": [
        1.5637109279632568,
        0.0,
        0.0,
        0.0,
        -0.0,
        -2.5476084675620495e-07,
        -1.5637109279632362,
        0.0,
        0.0,
        1.5637109279632362,
        -2.5476084675620495e-07,
        0.0,
        -1.9010815620422363,
        6.245528697967529,
        6.129444599151611,
        1.0
      ],
      "name": "button"
    },
    {
      "mesh": 7,
      "name": "button_Material_0"
    },
    {
      "children": [
        20
      ],
      "matrix": [
        1.5637109279632568,
        -9.244582632375602e-17,
        1.2533076546011448e-17,
        0.0,
        -1.3433967773795077e-17,
        -0.4310173094307313,
        -1.5031352475359891,
        0.0,
        9.231920707659813e-17,
        1.5031352475359891,
        -0.4310173094307313,
        0.0,
        -1.6893360614776611,
        5.395218372344971,
        3.9411120414733887,
        1.0
      ],
      "name": "slider"
    },
    {
      "mesh": 8,
      "name": "slider_Material_0"
    }
  ],
  "samplers": [
    {
      "magFilter": 9729,
      "minFilter": 9987,
      "wrapS": 10497,
      "wrapT": 10497
    }
  ],
  "scene": 0,
  "scenes": [
    {
      "name": "Sketchfab_Scene",
      "nodes": [
        0
      ]
    }
  ],
  "textures": [
    {
      "sampler": 0,
      "source": 0
    },
    {
      "sampler": 0,
      "source": 1
    },
    {
      "sampler": 0,
      "source": 2
    },
    {
      "sampler": 0,
      "source": 3
    }
  ]
}
